<mxfile host="app.diagrams.net" agent="Mozilla/5.0 (X11; Linux x86_64; rv:128.0) Gecko/20100101 Firefox/128.0" version="24.7.17">
  <diagram name="Page-1" id="T-gzN3W7ZyekmYyn_9fb">
    <mxGraphModel dx="1434" dy="751" grid="1" gridSize="10" guides="1" tooltips="1" connect="1" arrows="1" fold="1" page="1" pageScale="1" pageWidth="827" pageHeight="1169" math="0" shadow="0">
      <root>
        <mxCell id="0" />
        <mxCell id="1" parent="0" />
        <mxCell id="oYFZ5jz1tXcfwGcMjV8x-1" value="&lt;div align=&quot;justify&quot; style=&quot;color: rgb(59, 59, 59); font-family: &amp;quot;Droid Sans Mono&amp;quot;, &amp;quot;monospace&amp;quot;, monospace; font-weight: normal; font-size: 14px; line-height: 19px; white-space: pre;&quot;&gt;&lt;div&gt;&lt;span style=&quot;color: rgb(0, 0, 255);&quot;&gt;static&lt;/span&gt;&lt;span style=&quot;color: rgb(0, 0, 0);&quot;&gt; &lt;/span&gt;&lt;span style=&quot;color: rgb(0, 0, 255);&quot;&gt;public&lt;/span&gt;&lt;span style=&quot;color: rgb(0, 0, 0);&quot;&gt; &lt;/span&gt;&lt;span style=&quot;color: rgb(38, 127, 153);&quot;&gt;void&lt;/span&gt;&lt;span style=&quot;color: rgb(0, 0, 0);&quot;&gt; &lt;/span&gt;&lt;span style=&quot;color: rgb(121, 94, 38);&quot;&gt;main&lt;/span&gt;&lt;span style=&quot;color: rgb(0, 0, 0);&quot;&gt;(&lt;/span&gt;&lt;span style=&quot;color: rgb(38, 127, 153);&quot;&gt;String&lt;/span&gt;&lt;span style=&quot;color: rgb(0, 0, 0);&quot;&gt; args[]) {&lt;/span&gt;&lt;/div&gt;&lt;div&gt;&lt;span style=&quot;color: rgb(0, 0, 0);&quot;&gt;        &lt;/span&gt;&lt;span style=&quot;color: rgb(38, 127, 153);&quot;&gt;Scanner&lt;/span&gt;&lt;span style=&quot;color: rgb(0, 0, 0);&quot;&gt; &lt;/span&gt;&lt;span style=&quot;color: rgb(0, 16, 128);&quot;&gt;keyboard&lt;/span&gt;&lt;span style=&quot;color: rgb(0, 0, 0);&quot;&gt; = &lt;/span&gt;&lt;span style=&quot;color: rgb(175, 0, 219);&quot;&gt;new&lt;/span&gt;&lt;span style=&quot;color: rgb(0, 0, 0);&quot;&gt; &lt;/span&gt;&lt;span style=&quot;color: rgb(121, 94, 38);&quot;&gt;Scanner&lt;/span&gt;&lt;span style=&quot;color: rgb(0, 0, 0);&quot;&gt;(&lt;/span&gt;&lt;span style=&quot;color: rgb(0, 16, 128);&quot;&gt;System&lt;/span&gt;&lt;span style=&quot;color: rgb(0, 0, 0);&quot;&gt;.&lt;/span&gt;&lt;span style=&quot;color: rgb(0, 16, 128);&quot;&gt;in&lt;/span&gt;&lt;span style=&quot;color: rgb(0, 0, 0);&quot;&gt;);&lt;/span&gt;&lt;/div&gt;&lt;div&gt;&lt;span style=&quot;color: rgb(0, 0, 0);&quot;&gt;        &lt;/span&gt;&lt;span style=&quot;color: rgb(38, 127, 153);&quot;&gt;String&lt;/span&gt;&lt;span style=&quot;color: rgb(0, 0, 0);&quot;&gt; &lt;/span&gt;&lt;span style=&quot;color: rgb(0, 16, 128);&quot;&gt;name&lt;/span&gt;&lt;span style=&quot;color: rgb(0, 0, 0);&quot;&gt;, &lt;/span&gt;&lt;span style=&quot;color: rgb(0, 16, 128);&quot;&gt;surname1&lt;/span&gt;&lt;span style=&quot;color: rgb(0, 0, 0);&quot;&gt;;&lt;/span&gt;&lt;/div&gt;&lt;br&gt;&lt;div&gt;&lt;span style=&quot;color: rgb(0, 0, 0);&quot;&gt;        &lt;/span&gt;&lt;span style=&quot;color: rgb(0, 16, 128);&quot;&gt;System&lt;/span&gt;&lt;span style=&quot;color: rgb(0, 0, 0);&quot;&gt;.&lt;/span&gt;&lt;span style=&quot;color: rgb(0, 16, 128);&quot;&gt;out&lt;/span&gt;&lt;span style=&quot;color: rgb(0, 0, 0);&quot;&gt;.&lt;/span&gt;&lt;span style=&quot;color: rgb(121, 94, 38);&quot;&gt;print&lt;/span&gt;&lt;span style=&quot;color: rgb(0, 0, 0);&quot;&gt;(&lt;/span&gt;&lt;span style=&quot;color: rgb(163, 21, 21);&quot;&gt;&quot;Introdueix el nom complet d&#39;una persona (nom i cognoms)&quot;&lt;/span&gt;&lt;span style=&quot;color: rgb(175, 0, 219);&quot;&gt;:&lt;/span&gt;&lt;span style=&quot;color: rgb(0, 0, 0);&quot;&gt; );&lt;/span&gt;&lt;/div&gt;&lt;div&gt;&lt;span style=&quot;color: rgb(0, 0, 0);&quot;&gt;        name = &lt;/span&gt;&lt;span style=&quot;color: rgb(0, 16, 128);&quot;&gt;keyboard&lt;/span&gt;&lt;span style=&quot;color: rgb(0, 0, 0);&quot;&gt;.&lt;/span&gt;&lt;span style=&quot;color: rgb(121, 94, 38);&quot;&gt;nextLine&lt;/span&gt;&lt;span style=&quot;color: rgb(0, 0, 0);&quot;&gt;();&lt;/span&gt;&lt;/div&gt;&lt;br&gt;&lt;div&gt;&lt;span style=&quot;color: rgb(0, 0, 0);&quot;&gt;        surname1 = &lt;/span&gt;&lt;span style=&quot;color: rgb(121, 94, 38);&quot;&gt;getFirstSurname&lt;/span&gt;&lt;span style=&quot;color: rgb(0, 0, 0);&quot;&gt;(name);&lt;/span&gt;&lt;/div&gt;&lt;/div&gt;" style="rounded=0;whiteSpace=wrap;html=1;fillColor=#d5e8d4;strokeColor=#82b366;strokeWidth=3;labelBackgroundColor=#d5e8d4;" vertex="1" parent="1">
          <mxGeometry x="10" y="20" width="790" height="190" as="geometry" />
        </mxCell>
        <mxCell id="oYFZ5jz1tXcfwGcMjV8x-2" value="&lt;div align=&quot;justify&quot; style=&quot;color: rgb(59, 59, 59); font-family: &amp;quot;Droid Sans Mono&amp;quot;, &amp;quot;monospace&amp;quot;, monospace; font-weight: normal; font-size: 14px; line-height: 19px; white-space: pre;&quot;&gt;&lt;div&gt;&lt;span style=&quot;color: #0000ff;&quot;&gt;static&lt;/span&gt;&lt;span style=&quot;color: #000000;&quot;&gt; &lt;/span&gt;&lt;span style=&quot;color: #0000ff;&quot;&gt;private&lt;/span&gt;&lt;span style=&quot;color: #000000;&quot;&gt; &lt;/span&gt;&lt;span style=&quot;color: #267f99;&quot;&gt;String&lt;/span&gt;&lt;span style=&quot;color: #000000;&quot;&gt; &lt;/span&gt;&lt;span style=&quot;color: #795e26;&quot;&gt;getFirstSurname&lt;/span&gt;&lt;span style=&quot;color: #000000;&quot;&gt;(&lt;/span&gt;&lt;span style=&quot;color: #267f99;&quot;&gt;String&lt;/span&gt;&lt;span style=&quot;color: #000000;&quot;&gt; name) {&lt;/span&gt;&lt;/div&gt;&lt;div&gt;&lt;span style=&quot;color: #000000;&quot;&gt;        &lt;/span&gt;&lt;span style=&quot;color: #267f99;&quot;&gt;String&lt;/span&gt;&lt;span style=&quot;color: #000000;&quot;&gt; &lt;/span&gt;&lt;span style=&quot;color: #001080;&quot;&gt;breakName&lt;/span&gt;&lt;span style=&quot;color: #000000;&quot;&gt;[] = &lt;/span&gt;&lt;span style=&quot;color: #001080;&quot;&gt;name&lt;/span&gt;&lt;span style=&quot;color: #000000;&quot;&gt;.&lt;/span&gt;&lt;span style=&quot;color: #795e26;&quot;&gt;split&lt;/span&gt;&lt;span style=&quot;color: #000000;&quot;&gt;(&lt;/span&gt;&lt;span style=&quot;color: #a31515;&quot;&gt;&quot; &quot;&lt;/span&gt;&lt;span style=&quot;color: #000000;&quot;&gt;);&lt;/span&gt;&lt;/div&gt;&lt;div&gt;&lt;span style=&quot;color: #000000;&quot;&gt;        &lt;/span&gt;&lt;span style=&quot;color: #af00db;&quot;&gt;return&lt;/span&gt;&lt;span style=&quot;color: #000000;&quot;&gt; breakName[&lt;/span&gt;&lt;span style=&quot;color: #098658;&quot;&gt;1&lt;/span&gt;&lt;span style=&quot;color: #000000;&quot;&gt;];&lt;/span&gt;&lt;/div&gt;&lt;div&gt;&lt;span style=&quot;color: #000000;&quot;&gt;}&lt;/span&gt;&lt;/div&gt;&lt;/div&gt;" style="rounded=0;whiteSpace=wrap;html=1;fillColor=#ffe6cc;strokeColor=#d79b00;strokeWidth=3;labelBackgroundColor=#FFE6CC;" vertex="1" parent="1">
          <mxGeometry x="850" y="270" width="500" height="90" as="geometry" />
        </mxCell>
        <mxCell id="eLmJEH-nsi4JKKOhxShT-24" value="&lt;b&gt;1&lt;/b&gt;" style="ellipse;whiteSpace=wrap;html=1;aspect=fixed;fillColor=#f8cecc;strokeColor=#b85450;" parent="1" vertex="1">
          <mxGeometry x="780" y="190" width="30" height="30" as="geometry" />
        </mxCell>
        <mxCell id="oYFZ5jz1tXcfwGcMjV8x-3" value="&lt;b&gt;2&lt;/b&gt;" style="ellipse;whiteSpace=wrap;html=1;aspect=fixed;fillColor=#f8cecc;strokeColor=#b85450;" vertex="1" parent="1">
          <mxGeometry x="1330" y="340" width="30" height="30" as="geometry" />
        </mxCell>
        <mxCell id="oYFZ5jz1tXcfwGcMjV8x-4" value="&lt;div style=&quot;color: rgb(59, 59, 59); font-family: &amp;quot;Droid Sans Mono&amp;quot;, &amp;quot;monospace&amp;quot;, monospace; font-weight: normal; font-size: 14px; line-height: 19px; white-space: pre;&quot; align=&quot;justify&quot;&gt;&lt;div&gt;&lt;span style=&quot;color: #000000;&quot;&gt;&lt;span style=&quot;white-space: pre;&quot;&gt;&#x9;&lt;/span&gt;surname1 = &lt;/span&gt;&lt;span style=&quot;color: #795e26;&quot;&gt;getFirstSurname&lt;/span&gt;&lt;span style=&quot;color: #000000;&quot;&gt;(name); &lt;span style=&quot;white-space: pre;&quot;&gt;&#x9;&lt;/span&gt;&lt;/span&gt;&lt;span style=&quot;color: #008000;&quot;&gt;//surname1 = breakName[1];&lt;/span&gt;&lt;/div&gt;&lt;div&gt;&lt;span style=&quot;color: #000000;&quot;&gt;        &lt;/span&gt;&lt;span style=&quot;color: #001080;&quot;&gt;System&lt;/span&gt;&lt;span style=&quot;color: #000000;&quot;&gt;.&lt;/span&gt;&lt;span style=&quot;color: #001080;&quot;&gt;out&lt;/span&gt;&lt;span style=&quot;color: #000000;&quot;&gt;.&lt;/span&gt;&lt;span style=&quot;color: #795e26;&quot;&gt;println&lt;/span&gt;&lt;span style=&quot;color: #000000;&quot;&gt;(&lt;/span&gt;&lt;span style=&quot;color: #a31515;&quot;&gt;&quot;El primer cognom d&#39;aquesta persona Ã©s &quot;&lt;/span&gt;&lt;span style=&quot;color: #000000;&quot;&gt; + surname1);&lt;/span&gt;&lt;/div&gt;&lt;div&gt;&lt;span style=&quot;color: #000000;&quot;&gt;}&lt;/span&gt;&lt;/div&gt;&lt;/div&gt;" style="rounded=0;whiteSpace=wrap;html=1;fillColor=#d5e8d4;strokeColor=#82b366;strokeWidth=3;labelBackgroundColor=#D5E8D4;" vertex="1" parent="1">
          <mxGeometry x="10" y="464" width="790" height="96" as="geometry" />
        </mxCell>
        <mxCell id="oYFZ5jz1tXcfwGcMjV8x-5" value="&lt;b&gt;3&lt;/b&gt;" style="ellipse;whiteSpace=wrap;html=1;aspect=fixed;fillColor=#f8cecc;strokeColor=#b85450;" vertex="1" parent="1">
          <mxGeometry x="780" y="540" width="30" height="30" as="geometry" />
        </mxCell>
        <mxCell id="oYFZ5jz1tXcfwGcMjV8x-18" value="" style="endArrow=classic;html=1;rounded=0;strokeColor=#6c8ebf;fillColor=#dae8fc;strokeWidth=3;entryX=0;entryY=0;entryDx=0;entryDy=0;" edge="1" parent="1" target="oYFZ5jz1tXcfwGcMjV8x-2">
          <mxGeometry width="50" height="50" relative="1" as="geometry">
            <mxPoint x="390" y="180" as="sourcePoint" />
            <mxPoint x="460" y="140" as="targetPoint" />
          </mxGeometry>
        </mxCell>
        <mxCell id="oYFZ5jz1tXcfwGcMjV8x-19" value="" style="endArrow=classic;html=1;rounded=0;entryX=1;entryY=0;entryDx=0;entryDy=0;fillColor=#dae8fc;strokeColor=#6c8ebf;strokeWidth=3;" edge="1" parent="1" target="oYFZ5jz1tXcfwGcMjV8x-4">
          <mxGeometry width="50" height="50" relative="1" as="geometry">
            <mxPoint x="940" y="330" as="sourcePoint" />
            <mxPoint x="990" y="280" as="targetPoint" />
          </mxGeometry>
        </mxCell>
      </root>
    </mxGraphModel>
  </diagram>
</mxfile>
